<svg xmlns="http://www.w3.org/2000/svg" xml:space="preserve" style="fill-rule:evenodd;clip-rule:evenodd;stroke-linecap:round;stroke-linejoin:round;stroke-miterlimit:2" viewBox="0 0 64 64"><path d="M0 0h64v64H0z" style="fill:none"/><path d="M34 34.747c0-.339.275-.614.614-.614h8.772c.339 0 .614.275.614.614V50H34V34.747ZM55 34.991a.858.858 0 0 0-.857-.858h-6.352a.858.858 0 0 0-.858.858v6.285c0 .473.384.857.858.857h6.352a.857.857 0 0 0 .857-.857v-6.285ZM44 40.356h2.933M44 36.444h2.933M51.2 37.333 50.133 38.4M50.769 13.394a4.5 4.5 0 0 0-4.137-2.727H17.368a4.5 4.5 0 0 0-4.137 2.727L8 25.6h48l-5.231-12.206ZM17.067 25.6H9.6v1.465a2.802 2.802 0 0 0 2.801 2.802h1.864c.743 0 1.456-.295 1.981-.821a2.799 2.799 0 0 0 .821-1.981V25.6Z" style="fill:none;stroke:#444f58;stroke-width:2px"/><path d="M24.533 25.6h-7.466v1.465a2.802 2.802 0 0 0 2.801 2.802h1.864a2.8 2.8 0 0 0 2.801-2.802V25.6Z" style="fill:none;stroke:#444f58;stroke-width:2px"/><path d="M32 25.6h-7.467v1.465c0 .743.295 1.456.821 1.981a2.799 2.799 0 0 0 1.981.821h1.864A2.8 2.8 0 0 0 32 27.065V25.6Z" style="fill:none;stroke:#444f58;stroke-width:2px"/><path d="M39.467 25.6H32v1.465a2.802 2.802 0 0 0 2.801 2.802h1.864c.743 0 1.456-.295 1.981-.821a2.799 2.799 0 0 0 .821-1.981V25.6Z" style="fill:none;stroke:#444f58;stroke-width:2px"/><path d="M46.933 25.6h-7.466v1.465a2.802 2.802 0 0 0 2.801 2.802h1.864a2.8 2.8 0 0 0 2.801-2.802V25.6Z" style="fill:none;stroke:#444f58;stroke-width:2px"/><path d="M54.4 25.6h-7.467v1.465c0 .743.295 1.456.821 1.981a2.799 2.799 0 0 0 1.981.821h1.864a2.8 2.8 0 0 0 2.801-2.802V25.6ZM51 29.867v4.266M51 45.769v2.408c0 .484-.194.947-.538 1.289a1.847 1.847 0 0 1-1.3.534H29.867M15 50.133h-1.162A1.838 1.838 0 0 1 12 48.295V29.867M14.4 54h11.733L24 41h-7.467L14.4 54ZM19.2 46h2.133M19.2 49.067h2.133" style="fill:none;stroke:#444f58;stroke-width:2px"/></svg>